<svg xmlns="http://www.w3.org/2000/svg" viewBox="0 0 1280 420" width="1280" height="420" role="img" aria-label="anyviz — AI-native data visualization spec and skill library">
  <title>anyviz</title>
  <desc>Animated banner: the anyviz wordmark with live chart motifs (bars, trend line, scatter, area) on a dark canvas.</desc>
  <defs>
    <linearGradient id="av-grad" x1="0" y1="0" x2="1" y2="1">
      <stop offset="0%" stop-color="#4269d0"/><stop offset="55%" stop-color="#6cc5b0"/><stop offset="100%" stop-color="#3ca951"/>
    </linearGradient>
    <linearGradient id="b-grad" x1="0" y1="0" x2="1" y2="1">
      <stop offset="0%" stop-color="#4269d0"/><stop offset="55%" stop-color="#6cc5b0"/><stop offset="100%" stop-color="#3ca951"/>
    </linearGradient>
    <radialGradient id="b-glow" cx="50%" cy="42%" r="60%">
      <stop offset="0%" stop-color="#4269d0" stop-opacity="0.16"/><stop offset="70%" stop-color="#03050C" stop-opacity="0"/>
    </radialGradient>
    <linearGradient id="b-area" x1="0" y1="0" x2="0" y2="1">
      <stop offset="0%" stop-color="#4269d0" stop-opacity="0.30"/><stop offset="100%" stop-color="#4269d0" stop-opacity="0"/>
    </linearGradient>
  </defs>
  <rect width="1280" height="420" fill="#03050C"/>
  <rect width="1280" height="420" fill="url(#b-glow)"/>
  <g stroke="#FFFFFF" stroke-opacity="0.04" stroke-width="1">
    <line x1="0" y1="105" x2="1280" y2="105"/><line x1="0" y1="210" x2="1280" y2="210"/><line x1="0" y1="315" x2="1280" y2="315"/>
  </g>
  <g transform="translate(96,0)">
    <rect x="0" y="270" width="34" height="0" rx="4" fill="#4269d0">
      <animate attributeName="height" from="0" to="70" dur="0.7s" begin="0.2s" fill="freeze" calcMode="spline" keySplines="0.2 0.7 0.2 1"/>
      <animate attributeName="y" from="270" to="200" dur="0.7s" begin="0.2s" fill="freeze" calcMode="spline" keySplines="0.2 0.7 0.2 1"/>
    </rect>
    <rect x="46" y="270" width="34" height="0" rx="4" fill="#6cc5b0">
      <animate attributeName="height" from="0" to="120" dur="0.7s" begin="0.32s" fill="freeze" calcMode="spline" keySplines="0.2 0.7 0.2 1"/>
      <animate attributeName="y" from="270" to="150" dur="0.7s" begin="0.32s" fill="freeze" calcMode="spline" keySplines="0.2 0.7 0.2 1"/>
    </rect>
    <rect x="92" y="270" width="34" height="0" rx="4" fill="#3ca951">
      <animate attributeName="height" from="0" to="92" dur="0.7s" begin="0.44s" fill="freeze" calcMode="spline" keySplines="0.2 0.7 0.2 1"/>
      <animate attributeName="y" from="270" to="178" dur="0.7s" begin="0.44s" fill="freeze" calcMode="spline" keySplines="0.2 0.7 0.2 1"/>
    </rect>
  </g>
  <g transform="translate(940,150)">
    <path d="M0 120 L40 95 L40 120 Z M40 95 L88 105 L88 120 L40 120 Z M88 105 L140 60 L140 120 L88 120 Z M140 60 L196 26 L196 120 L140 120 Z"
          fill="url(#b-area)" opacity="0">
      <animate attributeName="opacity" from="0" to="1" dur="0.8s" begin="1.1s" fill="freeze"/>
    </path>
    <polyline points="0,120 40,95 88,105 140,60 196,26" fill="none" stroke="url(#b-grad)"
              stroke-width="5" stroke-linecap="round" stroke-linejoin="round"
              stroke-dasharray="320" stroke-dashoffset="320">
      <animate attributeName="stroke-dashoffset" from="320" to="0" dur="1.1s" begin="0.9s" fill="freeze" calcMode="spline" keySplines="0.4 0 0.2 1"/>
    </polyline>
    <g fill="#03050C" stroke-width="3">
      <circle cx="40" cy="95" r="6" stroke="#4269d0"><animate attributeName="r" from="0" to="6" dur="0.3s" begin="1.4s" fill="freeze"/></circle>
      <circle cx="88" cy="105" r="6" stroke="#6cc5b0"><animate attributeName="r" from="0" to="6" dur="0.3s" begin="1.55s" fill="freeze"/></circle>
      <circle cx="140" cy="60" r="6" stroke="#6cc5b0"><animate attributeName="r" from="0" to="6" dur="0.3s" begin="1.7s" fill="freeze"/></circle>
      <circle cx="196" cy="26" r="7" fill="#3ca951" stroke="#FFFFFF"><animate attributeName="r" from="0" to="7" dur="0.35s" begin="1.85s" fill="freeze"/></circle>
    </g>
  </g>
  <g transform="translate(465.0,60)" opacity="0">
    <animate attributeName="opacity" from="0" to="1" dur="0.6s" begin="0.5s" fill="freeze"/>
    <animateTransform attributeName="transform" type="translate" additive="sum"
                      from="0 18" to="0 0" dur="0.7s" begin="0.5s" fill="freeze"
                      calcMode="spline" keySplines="0.2 0.7 0.2 1"/>
    <line x1="22" y1="105" x2="350.0" y2="105" stroke="#FFFFFF" stroke-width="1.4" stroke-opacity="0.18"/>
    <path d="M19.96 106.02 Q11.98 106.02 7.52 101.67 Q3.05 97.33 3.05 89.46 Q3.05 80.93 8.61 76.46 Q14.17 71.99 24.73 71.89 L36.56 71.69 L36.56 68.89 Q36.56 63.51 34.68 60.90 Q32.80 58.28 28.54 58.28 Q24.58 58.28 22.72 60.08 Q20.87 61.89 20.41 66.05 L5.54 65.34 Q6.91 57.32 12.87 53.18 Q18.84 49.04 29.15 49.04 Q39.56 49.04 45.20 54.17 Q50.83 59.30 50.83 68.74 L50.83 88.75 Q50.83 93.37 51.87 95.12 Q52.91 96.88 55.35 96.88 Q56.98 96.88 58.50 96.57 L58.50 104.29 Q57.23 104.59 56.21 104.85 Q55.20 105.10 54.18 105.25 Q53.17 105.41 52.03 105.51 Q50.88 105.61 49.36 105.61 Q43.98 105.61 41.41 102.97 Q38.85 100.33 38.34 95.20 L38.04 95.20 Q32.04 106.02 19.96 106.02 Z M36.56 79.56 L29.25 79.66 Q24.27 79.86 22.19 80.75 Q20.11 81.64 19.02 83.47 Q17.93 85.30 17.93 88.34 Q17.93 92.25 19.73 94.16 Q21.53 96.06 24.53 96.06 Q27.88 96.06 30.65 94.23 Q33.41 92.41 34.99 89.18 Q36.56 85.96 36.56 82.35 L36.56 79.56 Z M97.70 105.00 L97.70 74.18 Q97.70 59.70 87.90 59.70 Q82.72 59.70 79.54 64.15 Q76.37 68.59 76.37 75.55 L76.37 105.00 L62.10 105.00 L62.10 62.34 Q62.10 57.93 61.97 55.11 Q61.85 52.29 61.70 50.05 L75.30 50.05 Q75.46 51.02 75.71 55.21 Q75.96 59.40 75.96 60.97 L76.17 60.97 Q79.06 54.68 83.43 51.83 Q87.80 48.99 93.84 48.99 Q102.57 48.99 107.25 54.37 Q111.92 59.75 111.92 70.11 L111.92 105.00 L97.70 105.00 Z M129.74 126.58 Q124.61 126.58 120.75 125.92 L120.75 115.77 Q123.44 116.17 125.68 116.17 Q128.72 116.17 130.73 115.21 Q132.73 114.24 134.33 112.01 Q135.93 109.77 137.91 104.44 L116.18 50.05 L131.26 50.05 L139.89 75.80 Q141.93 81.34 145.02 92.76 L146.29 87.94 L149.59 76.00 L157.72 50.05 L172.65 50.05 L150.91 107.89 Q146.55 118.46 141.85 122.52 Q137.15 126.58 129.74 126.58 Z M207.33 105.00 L190.27 105.00 L170.61 50.05 L185.70 50.05 L195.29 80.78 Q196.05 83.32 198.90 93.47 Q199.41 91.39 200.98 86.16 Q202.55 80.93 212.66 50.05 L227.59 50.05 L207.33 105.00 Z" fill="#F8FAFC"/>
    <rect x="228.0" y="52" width="15" height="53" rx="3.5" fill="#F8FAFC"/>
    <circle cx="235.5" cy="33" r="11.5" fill="#4269d0" stroke="#03050C" stroke-width="3">
      <animate attributeName="r" from="11.5" to="13.5" dur="1.6s" begin="2.2s"
               repeatCount="indefinite" values="11.5;13.5;11.5" keyTimes="0;0.5;1"/>
    </circle>
    <path d="M251.21 105.00 L251.21 94.89 L277.06 60.36 L253.29 60.36 L253.29 50.05 L292.80 50.05 L292.80 60.26 L267.11 94.59 L295.29 94.59 L295.29 105.00 L251.21 105.00 Z" fill="#F8FAFC"/>
    <g stroke-dasharray="79.2" stroke-dashoffset="79.2">
      <animate attributeName="stroke-dashoffset" from="79.2" to="0" dur="0.7s" begin="1.0s" fill="freeze"/>
      <polyline points="304.0,97 317.0,78 330.0,85 344.0,46" fill="none" stroke="url(#av-grad)" stroke-width="5.5" stroke-linecap="round" stroke-linejoin="round"/>
    </g>
    <circle cx="344.0" cy="46" r="6.5" fill="#3ca951" stroke="#03050C" stroke-width="2.5" opacity="0">
      <animate attributeName="opacity" from="0" to="1" dur="0.3s" begin="1.6s" fill="freeze"/>
    </circle>
  </g>
  <text x="640" y="362" text-anchor="middle" fill="#9696a0"
        font-family="'Helvetica Neue',Helvetica,Arial,sans-serif" font-size="22" font-weight="400" letter-spacing="3" opacity="0">
    AI-NATIVE DATA VISUALIZATION
    <animate attributeName="opacity" from="0" to="1" dur="0.8s" begin="1.8s" fill="freeze"/>
  </text>
</svg>
