<svg xmlns="http://www.w3.org/2000/svg" viewBox="0 0 394 130" width="394" height="130" role="img" aria-label="anyviz">
  <title>anyviz</title>
  <desc>anyviz wordmark — the "i" dot is a data point and the "z" leads into a rising trend line. Letters are outlined paths for font-independent rendering.</desc>
  <defs>
    <linearGradient id="av-grad" x1="0" y1="0" x2="1" y2="1">
      <stop offset="0%" stop-color="#4269d0"/><stop offset="55%" stop-color="#6cc5b0"/><stop offset="100%" stop-color="#3ca951"/>
    </linearGradient>
  </defs>
  <line x1="22" y1="105" x2="370.0" y2="105" stroke="#9696a0" stroke-width="1.4" stroke-opacity="0.35"/><path d="M39.96 106.02 Q31.98 106.02 27.52 101.67 Q23.05 97.33 23.05 89.46 Q23.05 80.93 28.61 76.46 Q34.17 71.99 44.73 71.89 L56.56 71.69 L56.56 68.89 Q56.56 63.51 54.68 60.90 Q52.80 58.28 48.54 58.28 Q44.58 58.28 42.72 60.08 Q40.87 61.89 40.41 66.05 L25.54 65.34 Q26.91 57.32 32.87 53.18 Q38.84 49.04 49.15 49.04 Q59.56 49.04 65.20 54.17 Q70.83 59.30 70.83 68.74 L70.83 88.75 Q70.83 93.37 71.87 95.12 Q72.91 96.88 75.35 96.88 Q76.98 96.88 78.50 96.57 L78.50 104.29 Q77.23 104.59 76.21 104.85 Q75.20 105.10 74.18 105.25 Q73.17 105.41 72.03 105.51 Q70.88 105.61 69.36 105.61 Q63.98 105.61 61.41 102.97 Q58.85 100.33 58.34 95.20 L58.04 95.20 Q52.04 106.02 39.96 106.02 Z M56.56 79.56 L49.25 79.66 Q44.27 79.86 42.19 80.75 Q40.11 81.64 39.02 83.47 Q37.93 85.30 37.93 88.34 Q37.93 92.25 39.73 94.16 Q41.53 96.06 44.53 96.06 Q47.88 96.06 50.65 94.23 Q53.41 92.41 54.99 89.18 Q56.56 85.96 56.56 82.35 L56.56 79.56 Z M117.70 105.00 L117.70 74.18 Q117.70 59.70 107.90 59.70 Q102.72 59.70 99.54 64.15 Q96.37 68.59 96.37 75.55 L96.37 105.00 L82.10 105.00 L82.10 62.34 Q82.10 57.93 81.97 55.11 Q81.85 52.29 81.70 50.05 L95.30 50.05 Q95.46 51.02 95.71 55.21 Q95.96 59.40 95.96 60.97 L96.17 60.97 Q99.06 54.68 103.43 51.83 Q107.80 48.99 113.84 48.99 Q122.57 48.99 127.25 54.37 Q131.92 59.75 131.92 70.11 L131.92 105.00 L117.70 105.00 Z M149.74 126.58 Q144.61 126.58 140.75 125.92 L140.75 115.77 Q143.44 116.17 145.68 116.17 Q148.72 116.17 150.73 115.21 Q152.73 114.24 154.33 112.01 Q155.93 109.77 157.91 104.44 L136.18 50.05 L151.26 50.05 L159.89 75.80 Q161.93 81.34 165.02 92.76 L166.29 87.94 L169.59 76.00 L177.72 50.05 L192.65 50.05 L170.91 107.89 Q166.55 118.46 161.85 122.52 Q157.15 126.58 149.74 126.58 Z M227.33 105.00 L210.27 105.00 L190.61 50.05 L205.70 50.05 L215.29 80.78 Q216.05 83.32 218.90 93.47 Q219.41 91.39 220.98 86.16 Q222.55 80.93 232.66 50.05 L247.59 50.05 L227.33 105.00 Z" fill="#1A1A1A"/><rect x="248.0" y="52" width="15" height="53" rx="3.5" fill="#1A1A1A"/><circle cx="255.5" cy="33" r="11.5" fill="#4269d0" stroke="#FFFFFF" stroke-width="3"/><path d="M271.21 105.00 L271.21 94.89 L297.06 60.36 L273.29 60.36 L273.29 50.05 L312.80 50.05 L312.80 60.26 L287.11 94.59 L315.29 94.59 L315.29 105.00 L271.21 105.00 Z" fill="#1A1A1A"/><polyline points="324.0,97 337.0,78 350.0,85 364.0,46" fill="none" stroke="url(#av-grad)" stroke-width="5.5" stroke-linecap="round" stroke-linejoin="round"/><circle cx="364.0" cy="46" r="6.5" fill="#3ca951" stroke="#FFFFFF" stroke-width="2.5"/>
</svg>
